<svg width="80" height="80" viewBox="0 0 80 80" fill="none" xmlns="http://www.w3.org/2000/svg">
<path fill-rule="evenodd" clip-rule="evenodd" d="M66.828 21.172C67.5779 21.9221 67.9991 22.9393 67.9991 24C67.9991 25.0607 67.5779 26.0779 66.828 26.828L34.828 58.828C34.0779 59.5779 33.0607 59.9991 32 59.9991C30.9393 59.9991 29.9221 59.5779 29.172 58.828L13.172 42.828C12.4434 42.0736 12.0402 41.0632 12.0493 40.0144C12.0584 38.9656 12.4791 37.9624 13.2207 37.2207C13.9624 36.4791 14.9656 36.0584 16.0144 36.0493C17.0632 36.0402 18.0736 36.4434 18.828 37.172L32 50.344L61.172 21.172C61.9221 20.4221 62.9393 20.0009 64 20.0009C65.0607 20.0009 66.0779 20.4221 66.828 21.172Z" fill="#5B9A6D"/>
</svg>
