<svg width="80" height="80" viewBox="0 0 80 80" fill="none" xmlns="http://www.w3.org/2000/svg">
<path fill-rule="evenodd" clip-rule="evenodd" d="M40 72C48.4869 72 56.6263 68.6286 62.6274 62.6274C68.6286 56.6263 72 48.4869 72 40C72 31.5131 68.6286 23.3737 62.6274 17.3726C56.6263 11.3714 48.4869 8 40 8C31.5131 8 23.3737 11.3714 17.3726 17.3726C11.3714 23.3737 8 31.5131 8 40C8 48.4869 11.3714 56.6263 17.3726 62.6274C23.3737 68.6286 31.5131 72 40 72ZM44 24C44 22.9391 43.5786 21.9217 42.8284 21.1716C42.0783 20.4214 41.0609 20 40 20C38.9391 20 37.9217 20.4214 37.1716 21.1716C36.4214 21.9217 36 22.9391 36 24V40C36.0002 41.0608 36.4218 42.078 37.172 42.828L48.484 54.144C48.8556 54.5156 49.2968 54.8104 49.7824 55.0116C50.268 55.2127 50.7884 55.3162 51.314 55.3162C51.8396 55.3162 52.36 55.2127 52.8456 55.0116C53.3312 54.8104 53.7724 54.5156 54.144 54.144C54.5156 53.7724 54.8104 53.3312 55.0116 52.8456C55.2127 52.36 55.3162 51.8396 55.3162 51.314C55.3162 50.7884 55.2127 50.268 55.0116 49.7824C54.8104 49.2968 54.5156 48.8556 54.144 48.484L44 38.344V24Z" fill="#FFD54B"/>
</svg>
